<?xml version="1.0"?><svg width="793.7007874015749" height="1122.5196850393702" xmlns="http://www.w3.org/2000/svg" xmlns:xlink="http://www.w3.org/1999/xlink">
 <title>blue-gift</title>
 <defs>
  <filter id="filter5389">
   <feGaussianBlur stdDeviation="0.080261" id="feGaussianBlur5391"/>
  </filter>
  <filter id="filter5115">
   <feGaussianBlur stdDeviation="0.069505" id="feGaussianBlur5117"/>
  </filter>
  <filter id="filter5073">
   <feGaussianBlur stdDeviation="0.052773" id="feGaussianBlur5075"/>
  </filter>
  <filter id="filter4943">
   <feGaussianBlur stdDeviation="0.104926" id="feGaussianBlur4945"/>
  </filter>
  <filter id="filter4875">
   <feGaussianBlur stdDeviation="0.083783" id="feGaussianBlur4877"/>
  </filter>
  <filter id="filter5203">
   <feGaussianBlur stdDeviation="0.149113" id="feGaussianBlur5205"/>
  </filter>
  <filter id="filter4358" x="-0.02387" width="1.047739" y="-0.100428" height="1.200855">
   <feGaussianBlur stdDeviation="0.139889" id="feGaussianBlur4360"/>
  </filter>
  <filter id="filter4332">
   <feGaussianBlur stdDeviation="0.079515" id="feGaussianBlur4334"/>
  </filter>
  <filter id="filter4009">
   <feGaussianBlur stdDeviation="0.150945" id="feGaussianBlur4011"/>
  </filter>
  <filter id="filter3954">
   <feGaussianBlur stdDeviation="0.146029" id="feGaussianBlur3956"/>
  </filter>
  <filter id="filter3936">
   <feGaussianBlur stdDeviation="0.190964" id="feGaussianBlur3938"/>
  </filter>
  <filter id="filter3840">
   <feGaussianBlur stdDeviation="0.291436" id="feGaussianBlur3842"/>
  </filter>
  <filter id="filter4286">
   <feGaussianBlur stdDeviation="0.180019" id="feGaussianBlur4288"/>
  </filter>
  <filter id="filter3888" x="-0.726786" width="2.453571" y="-0.024362" height="1.048723">
   <feGaussianBlur stdDeviation="0.157191" id="feGaussianBlur3890"/>
  </filter>
  <filter id="filter4049">
   <feGaussianBlur stdDeviation="0.286652" id="feGaussianBlur4051"/>
  </filter>
  <filter id="filter4715" x="-0.059726" width="1.119452" y="-0.133048" height="1.266096">
   <feGaussianBlur stdDeviation="2.386165" id="feGaussianBlur4717"/>
  </filter>
  <linearGradient id="linearGradient5293">
   <stop offset="0" id="stop5295" stop-color="#ffffff"/>
   <stop offset="1" id="stop5297" stop-opacity="0" stop-color="#ffffff"/>
  </linearGradient>
  <linearGradient xlink:href="#linearGradient5293" id="linearGradient3217" x1="0.361542" y1="-0.126005" x2="0.500283" y2="1.068487"/>
  <linearGradient xlink:href="#linearGradient5119" id="linearGradient3215" x1="0.316604" y1="-0.330674" x2="0.575904" y2="0.493692"/>
  <linearGradient id="linearGradient5119">
   <stop offset="0" id="stop5121" stop-color="#000000"/>
   <stop offset="1" id="stop5123" stop-opacity="0" stop-color="#000000"/>
  </linearGradient>
  <linearGradient xlink:href="#linearGradient5119" id="linearGradient3213" x1="-0.044452" y1="0.419865" x2="0.660699" y2="0.10131"/>
  <linearGradient id="linearGradient4807">
   <stop offset="0" id="stop4809" stop-color="#cccccc"/>
   <stop offset="1" id="stop4811" stop-color="#ffffff"/>
  </linearGradient>
  <linearGradient xlink:href="#linearGradient4807" id="linearGradient3211" x1="1.091084" y1="0.112378" x2="0.401199" y2="0.944353"/>
  <linearGradient id="linearGradient4815">
   <stop offset="0" id="stop4817" stop-color="#333333"/>
   <stop offset="1" id="stop4819" stop-color="#cccccc"/>
  </linearGradient>
  <linearGradient xlink:href="#linearGradient4815" id="linearGradient3209" x1="0.69969" y1="0.286354" x2="-0.133052" y2="1.12127"/>
  <linearGradient id="linearGradient4949">
   <stop offset="0" id="stop4951" stop-color="#000000"/>
   <stop offset="1" id="stop4953" stop-opacity="0" stop-color="#000000"/>
  </linearGradient>
  <linearGradient xlink:href="#linearGradient4949" id="linearGradient3207" x1="0.914247" y1="1.242512" x2="0.145313" y2="-0.122842"/>
  <linearGradient id="linearGradient5397">
   <stop offset="0" id="stop5399" stop-color="#cccccc"/>
   <stop offset="1" id="stop5401" stop-color="#191919"/>
  </linearGradient>
  <linearGradient xlink:href="#linearGradient5397" id="linearGradient3205" x1="0.154794" y1="0.341634" x2="0.617756" y2="0.341637"/>
  <linearGradient id="linearGradient4801">
   <stop id="stop4803" offset="0" stop-color="#ffffff"/>
   <stop id="stop4805" offset="1" stop-color="#000000"/>
  </linearGradient>
  <radialGradient xlink:href="#linearGradient4801" id="radialGradient3203" gradientUnits="userSpaceOnUse" gradientTransform="matrix(3.53999, 1.63893, -3.24791, 7.01621, -1854.68, -2912.75)" cx="999.93152" cy="205.93054" fx="999.93152" fy="205.93054" r="2.865465"/>
  <linearGradient id="linearGradient4891">
   <stop offset="0" id="stop4893" stop-color="#333333"/>
   <stop offset="1" id="stop4895" stop-opacity="0" stop-color="#ffffff"/>
  </linearGradient>
  <linearGradient xlink:href="#linearGradient4891" id="linearGradient3201" x1="0.867086" y1="0.898997" x2="0.267044" y2="0.247839"/>
  <linearGradient id="linearGradient2955">
   <stop offset="0" id="stop2957" stop-color="#b3b3b3"/>
   <stop offset="1" id="stop2959" stop-color="#ffffff"/>
  </linearGradient>
  <linearGradient xlink:href="#linearGradient2955" id="linearGradient3199" x1="0.698453" y1="0.285764" x2="0.297085" y2="0.767611"/>
  <linearGradient id="linearGradient4204">
   <stop offset="0" id="stop4206" stop-color="#ffffff"/>
   <stop offset="1" id="stop4208" stop-color="#b3b3b3"/>
  </linearGradient>
  <radialGradient xlink:href="#linearGradient4204" id="radialGradient3197" gradientUnits="userSpaceOnUse" gradientTransform="matrix(-1.82048, -2.22468, 2.13541, -1.74745, 2372.2, 2740.57)" cx="990.43945" cy="209.13644" fx="990.43945" fy="209.13644" r="5.838017"/>
  <linearGradient id="linearGradient5133">
   <stop id="stop5135" offset="0" stop-opacity="0" stop-color="#7f7f7f"/>
   <stop id="stop5137" offset="1" stop-color="#000000"/>
  </linearGradient>
  <linearGradient xlink:href="#linearGradient5133" id="linearGradient3195" x1="0.49997" y1="1.086434" x2="0.346344" y2="0.259791"/>
  <linearGradient id="linearGradient4362">
   <stop offset="0" id="stop4364" stop-color="#b3b3b3"/>
   <stop offset="1" id="stop4366" stop-color="#ffffff"/>
  </linearGradient>
  <linearGradient xlink:href="#linearGradient4362" id="linearGradient3193" x1="0.231074" y1="-0.237232" x2="0.821183" y2="0.827252"/>
  <linearGradient id="linearGradient4015">
   <stop offset="0" id="stop4017" stop-color="#000000"/>
   <stop offset="1" id="stop4019" stop-opacity="0" stop-color="#000000"/>
  </linearGradient>
  <linearGradient xlink:href="#linearGradient4015" id="linearGradient3189" x1="0.499794" y1="1.531709" x2="0.679562" y2="0.49993"/>
  <linearGradient id="linearGradient3969">
   <stop offset="0" id="stop3971" stop-color="#4d4d4d"/>
   <stop offset="1" id="stop3973" stop-opacity="0" stop-color="#4d4d4d"/>
  </linearGradient>
  <linearGradient xlink:href="#linearGradient3969" id="linearGradient3187" x1="0.492061" y1="-0.253994" x2="0.492061" y2="0.708007"/>
  <linearGradient id="linearGradient4823">
   <stop offset="0" id="stop4825" stop-color="#333333"/>
   <stop offset="1" id="stop4827" stop-color="#efefef"/>
  </linearGradient>
  <radialGradient xlink:href="#linearGradient4823" id="radialGradient3185" gradientUnits="userSpaceOnUse" gradientTransform="matrix(0.989972, 1.75853, -2.70812, 1.52454, 456.918, -1857.22)" cx="1006.3074" cy="164.89207" fx="1006.3074" fy="164.89207" r="5.472883"/>
  <linearGradient id="linearGradient4304">
   <stop id="stop4306" offset="0" stop-color="#e6e6e6"/>
   <stop id="stop4308" offset="1" stop-color="#666666"/>
  </linearGradient>
  <linearGradient xlink:href="#linearGradient4304" id="linearGradient3183" x1="0.735258" y1="0.17965" x2="1.199235" y2="1.066868"/>
  <linearGradient id="linearGradient3958">
   <stop offset="0" id="stop3960" stop-color="#ffffff"/>
   <stop offset="1" id="stop3962" stop-color="#e6e6e6"/>
  </linearGradient>
  <linearGradient xlink:href="#linearGradient3958" id="linearGradient3179" x1="0.22665" y1="1.023706" x2="0.311611" y2="0.375747"/>
  <linearGradient xlink:href="#linearGradient3892" id="linearGradient3177" x1="0.556568" y1="0.595727" x2="0.562999" y2="1.114766"/>
  <linearGradient id="linearGradient4224">
   <stop id="stop4226" offset="0" stop-color="#ffffff"/>
   <stop id="stop4228" offset="1" stop-opacity="0" stop-color="#4d4d4d"/>
  </linearGradient>
  <linearGradient xlink:href="#linearGradient4224" id="linearGradient3175" x1="0.499966" y1="0.747473" x2="0.536555" y2="0.354848"/>
  <linearGradient id="linearGradient3892">
   <stop offset="0" id="stop3894" stop-color="#ffffff"/>
   <stop offset="1" id="stop3896" stop-opacity="0" stop-color="#ffffff"/>
  </linearGradient>
  <linearGradient xlink:href="#linearGradient3892" id="linearGradient3173" x1="0.592243" y1="0.700565" x2="0.592243" y2="-0.218247"/>
  <linearGradient id="linearGradient4025">
   <stop offset="0" id="stop4027" stop-color="#ffffff"/>
   <stop offset="1" id="stop4029" stop-opacity="0" stop-color="#ffffff"/>
  </linearGradient>
  <radialGradient xlink:href="#linearGradient4025" id="radialGradient3171" gradientUnits="userSpaceOnUse" gradientTransform="matrix(1.16413, -1.97537, 2.04604, 1.20577, -614.231, 1863.89)" cx="985.76221" cy="238.34775" fx="985.76221" fy="238.34775" r="11.034685"/>
  <linearGradient xlink:href="#linearGradient3969" id="svg_1" x1="0.495934" y1="-0.215352" x2="0.495934" y2="0.717192"/>
  <linearGradient xlink:href="#linearGradient4224" id="svg_2" x1="0.611934" y1="0.689279" x2="0.567164" y2="0.205957"/>
 </defs>
 <metadata id="metadata5525">image/svg+xml</metadata>
 <g>
  <title>Layer 1</title>
  <g id="layer1">
   <g id="g5182" transform="matrix(7.34324, 0, 0, 7.34324, -9410.66, -4258.49)">
    <path id="path4665" d="m1284.293945,670.060181l50.473633,20.143066l40.511841,-28.678284l-50.473755,-13.314941l-40.511719,21.850159z" filter="url(#filter4715)" stroke-width="1px" fill-rule="evenodd" fill="#000000" opacity="0.755814"/>
    <g transform="matrix(2.15374, 0, 0, 2.15374, -860.659, 248.104)" id="g3101">
     <g id="g3103">
      <path id="path3105" d="m997.098267,177.344589l0,17.516556l22.434021,8.147079l17.32196,-11.580399l0,-16.640732l-17.808533,9.439484l-21.947449,-6.881989z" stroke-miterlimit="4" stroke-width="0.2" fill-rule="evenodd" fill="#0099ff"/>
      <path id="path3107" d="m997.283447,194.505997l22.069336,8.264648l0,-17.074234l-22.069336,-6.720703l0,15.530289z" filter="url(#filter4049)" stroke-width="1px" fill-rule="evenodd" fill="url(#radialGradient3171)" opacity="0.525362"/>
      <rect transform="matrix(1.13826, 0, 0, 1.13826, -122.155, -68.5298)" y="222.42242" x="1002.6832" height="15.804942" width="0.439288" id="rect3109" filter="url(#filter3888)" stroke-dashoffset="0" stroke-miterlimit="4" stroke-width="0.2" fill-rule="nonzero" fill="url(#linearGradient3173)" opacity="0.521739"/>
      <path id="path3111" d="m1014.843323,167.960754l22.487732,3.54541l-0.055298,6.039627l-17.696838,8.956024l-22.809753,-7.012451l0.03717,-6.174194l18.036987,-5.354416z" stroke-dashoffset="0" stroke-miterlimit="4" marker-end="none" marker-mid="none" marker-start="none" stroke-width="0.2" fill-rule="nonzero" fill="#007fff"/>
      <path id="path3113" d="m996.920166,175.070435l0.09082,4.359375l22.160095,6.902344l0.090942,-5.085938l-22.341858,-6.175781z" filter="url(#filter4286)" stroke-width="1px" fill-rule="evenodd" fill="url(#linearGradient3175)" opacity="0.5"/>
      <path id="path3115" d="m997.083862,173.492126l22.371338,5.94072l17.588135,-7.693924l-0.022461,0.456955l-17.306152,7.66954l-0.085632,6.229782l-0.519104,0l-0.000916,-6.229782l-21.999146,-5.846542l-0.026062,-0.526749z" filter="url(#filter3840)" stroke-width="1px" fill-rule="evenodd" fill="url(#linearGradient3177)"/>
      <path d="m1023.920105,170.193726l-18.316833,5.772018l-0.248596,21.613647l4.679626,1.871811l0.181702,-22.148453l18.642395,-7.079681l-4.938293,-0.029343z" id="path3117" filter="url(#filter3936)" stroke-miterlimit="4" stroke-width="0.2" fill-rule="evenodd" fill="#000000"/>
      <path id="path3119" d="m1024.177979,169.433228l-18.745972,6.189926l-0.279114,22.237793l4.657532,1.67334l0.234253,-22.574112l18.807739,-6.816147l-4.674438,-0.7108z" stroke-miterlimit="4" stroke-width="0.2" fill-rule="evenodd" fill="url(#linearGradient3179)"/>
      <path d="m1037.460083,172.818832l-0.358643,4.695328l-17.806763,8.873825l-0.090942,-5.063828l18.256348,-8.505325z" id="path3121" filter="url(#filter4286)" stroke-width="1px" fill-rule="evenodd" fill="url(#svg_2)" opacity="0.5"/>
      <path d="m1005.332275,170.828888l21.72168,5.567215l0.041504,21.425064l4.227539,-2.817123l-0.258057,-20.5466l-21.529236,-4.750565l-4.20343,1.122009z" id="path3123" filter="url(#filter3954)" stroke-miterlimit="4" stroke-width="0.2" fill-rule="evenodd" fill="#000000"/>
      <path id="path3125" d="m1005.274597,170.784805l21.950745,5.440018l-0.082886,21.715088l4.165405,-2.796402l-0.071533,-20.857361l-21.631042,-4.826874l-4.330688,1.325531z" stroke-miterlimit="4" stroke-width="0.2" fill-rule="evenodd" fill="url(#linearGradient3183)"/>
      <path id="path3127" d="m1010.070313,164.985214c0,0 0.218079,1.802032 1.470703,3.46051c0.59436,0.78714 2.898071,2.119568 2.898071,2.119568l1.254517,1.513962c0,0 -1.297729,0.432571 -1.946594,0.346054c-0.648804,-0.086502 -3.867493,-1.020401 -5.078735,-1.712494c-1.211182,-0.692108 -3.373962,-3.13147 -3.503784,-3.693802c-0.1297,-0.562317 -0.727173,-2.024551 -0.208069,-2.976196c0.518982,-0.95163 1.52356,-1.393448 1.826355,-1.436707c0.302795,-0.043259 3.157715,1.42746 3.157715,1.42746l0.129822,0.951645z" stroke-width="1px" fill-rule="evenodd" fill="url(#radialGradient3185)"/>
      <path id="path3129" d="m1005.639526,175.925995l4.158264,1.022537l-0.272705,11.588654l-4.021973,-3.544769l0.136414,-9.066422z" filter="url(#filter4009)" stroke-width="1px" fill-rule="evenodd" fill="url(#linearGradient3187)" opacity="0.59058"/>
      <path id="path3131" d="m1005.303711,195.271729l-0.074829,2.526825l4.510803,1.628387l0.037415,-2.788849l-4.473389,-1.366364z" stroke-width="1px" fill-rule="evenodd" fill="url(#linearGradient3189)"/>
      <path d="m1031.169922,174.743408l-3.361572,1.509918l0.143066,9.267593l3.331421,-2.936172l-0.112915,-7.841339z" id="path3133" filter="url(#filter4009)" stroke-width="1px" fill-rule="evenodd" fill="url(#svg_1)" opacity="0.673913"/>
      <g transform="matrix(0.995325, 0.0965784, -0.0965784, 0.995325, 21.6778, -97.3128)" id="g3135">
       <path id="path3137" d="m1014.996826,173.212967c0,0 1.908264,-0.141373 2.190979,0.989517c0.282715,1.13089 -0.636108,2.473801 1.766968,4.664902c0.706848,-0.353409 0.777527,-1.060211 0.777527,-1.060211l1.837708,0.777481c0,0 -1.484314,-2.191086 -1.484314,-3.109924c0,-0.918839 0.212036,-2.049728 -0.424072,-2.403137c-0.636108,-0.353394 -3.746033,-0.353394 -3.746033,-0.353394l-0.918762,0.494766z" filter="url(#filter4332)" stroke-miterlimit="4" stroke-width="0.2" fill-rule="evenodd" fill="#000000" opacity="0.952899"/>
       <path d="m1015.104309,173.078033c0,0 1.908264,-0.141357 2.190979,0.989532c0.282715,1.13089 -0.636108,2.473801 1.767029,4.664886c0.706787,-0.353394 0.777466,-1.060196 0.777466,-1.060196l1.837708,0.777481c0,0 -1.484314,-2.191086 -1.484314,-3.109924c0,-0.918839 0.212036,-2.049728 -0.424072,-2.403137c-0.636108,-0.353394 -3.746033,-0.353394 -3.746033,-0.353394l-0.918762,0.494751z" id="path3139" stroke-miterlimit="4" stroke-width="0.2" fill-rule="evenodd" fill="url(#linearGradient3193)"/>
      </g>
      <path d="m1010.428894,171.769257c0,0 -1.837708,0.918839 -2.685791,1.201569c-0.848206,0.282715 -5.513123,-0.070679 -5.513123,-0.070679l2.403137,0.777481l-0.636108,1.413605c0,0 3.523804,0.034409 4.806274,-0.141357c1.891907,-0.259323 2.473816,-1.767014 5.088928,-1.837692c1.568787,-0.042404 2.403198,0.141357 2.403198,0.141357c0,0 -2.120422,-1.696335 -5.866516,-1.484283z" id="path3141" filter="url(#filter4358)" stroke-miterlimit="4" stroke-width="0.2" fill-rule="evenodd" fill="#000000"/>
      <path id="path3143" d="m1008.581421,163.520126c0,0 -1.101807,-0.629578 -1.521545,-0.629578c-0.419678,0 -1.941162,0.577118 -2.098572,1.364075c-0.15741,0.786972 -0.36731,2.413391 0.36731,3.357742c0.734497,0.944382 1.836182,1.941208 1.836182,1.941208c0,0 -1.662781,-3.165833 -0.944275,-4.616898c0.787781,-1.590897 2.413269,-1.41655 2.360901,-1.41655z" filter="url(#filter5203)" stroke-width="1px" fill-rule="evenodd" fill="url(#linearGradient3195)"/>
      <path id="path3145" d="m1009.326721,161.520264c-1.881836,0.132095 -3.869812,1.45784 -4.53125,2.59375c-0.881897,1.514526 0.507019,4.244736 2.548401,5.822632c2.797607,2.16243 6.982849,2.24295 6.982849,2.242966c0,-0.065231 2.733765,0.755646 1.625,-2.440598c-1.592041,-4.588974 -2.667725,-6.830048 -4.8125,-7.90625c-0.549194,-0.27562 -1.185242,-0.356537 -1.8125,-0.3125zm-2.631348,1.791992c1.908447,-0.595032 3.100342,1.99736 3.943848,3.051758c1.038208,1.297684 3.65625,5.125 3.65625,5.125l0.53125,0.6875c0,0 -0.289307,0.004593 -3.1875,-0.6875c-2.898132,-0.692108 -4.9823,-2.655594 -5.068848,-2.828613c-1.726746,-2.049438 -2.234985,-4.579575 0.125,-5.348145z" stroke-miterlimit="4" stroke-width="0.2" fill-rule="evenodd" fill="url(#radialGradient3197)"/>
      <path id="path3147" d="m1010.683472,171.539993c0,0 -1.837646,0.918839 -2.685852,1.201553c-0.848145,0.28273 -5.513,-0.070679 -5.513,-0.070679l2.403076,0.777481l-0.636108,1.413605c0,0 3.523804,0.034424 4.806213,-0.141357c1.892029,-0.259323 2.473816,-1.767014 5.088989,-1.837692c1.568787,-0.042389 2.403137,0.141373 2.403137,0.141373c0,0 -2.120422,-1.696335 -5.866455,-1.484283z" stroke-miterlimit="4" stroke-width="0.2" fill-rule="evenodd" fill="url(#linearGradient3199)"/>
      <path d="m1019.90332,171.392166c0,0 -3.065796,-1.435043 -3.783325,-1.435043c-0.717468,0 -1.891602,1.369812 -1.565491,2.217789c0.326172,0.847977 2.870117,1.435043 3.652771,1.435043c0.697021,-0.178772 1.330811,-0.39978 2.022095,-0.717529c0,-0.456589 -0.32605,-1.500259 -0.32605,-1.500259z" id="path3149" filter="url(#filter4875)" stroke-miterlimit="4" stroke-width="0.2" fill-rule="evenodd" fill="#000000"/>
      <path id="path3151" d="m1011.89209,167.012817l2.781433,4.380798l1.390747,-1.04306c0,0 -1.390747,-3.12912 -2.15564,-4.519852c-0.764954,-1.390717 -1.321228,-2.016556 -1.321228,-2.016556c0,0 1.18219,2.920532 0.903992,3.476822c-0.278076,0.55629 -1.460266,-0.278152 -1.599304,-0.278152z" filter="url(#filter4943)" stroke-width="1px" fill-rule="evenodd" fill="url(#linearGradient3201)"/>
      <path id="path3153" d="m1019.808899,171.314743c-0.308899,-0.261017 -3.133728,-1.519882 -3.851196,-1.519882c-0.717529,0 -1.891602,1.369812 -1.565491,2.217789c0.326172,0.847977 2.870117,1.435043 3.652771,1.435043c0.697021,-0.178757 1.330811,-0.39978 2.022095,-0.717529c0,-0.456589 0.135803,-0.966827 -0.258179,-1.415421z" stroke-miterlimit="4" stroke-width="0.2" fill-rule="evenodd" fill="url(#radialGradient3203)"/>
      <path id="path3155" d="m1018.63501,173.420212c0,0 2.246704,0.823593 3.63092,1.039886c1.384155,0.216278 4.198425,0.690369 4.890564,0.430817c0.692139,-0.259521 4.455444,-1.038147 4.974487,-1.860016c0.519165,-0.821869 -2.768433,-0.951645 -2.768433,-0.951645c0,0 -1.860107,1.167923 -3.157715,1.25444c-1.297607,0.086517 -5.104248,-0.821869 -5.104248,-0.821869l-2.422363,0.648849l-0.043213,0.259537z" stroke-miterlimit="4" stroke-width="0.2" fill-rule="evenodd" fill="url(#linearGradient3205)"/>
      <path id="path3157" d="m1015.61377,169.975937c0,0 0.347717,-0.162979 0.644836,-0.067871c0.424072,0.135742 0.764282,0.18689 1.67981,0.57692c0.987305,0.420578 1.653687,0.751328 1.721558,0.802246c0.557617,0.479065 0.17804,0.986465 0.195801,1.539352c-0.339355,0.169693 -1.391357,0.509048 -1.544067,0.542984c-0.706482,-0.652054 0.082397,-1.757065 1.051819,-1.840042c-0.128235,-0.214539 -1.205627,-0.734207 -1.460754,-0.852966c-0.828186,-0.329361 -1.745972,-0.649734 -1.745972,-0.649734c0,0 -0.847778,-0.104996 -1.221802,0.61087c0.0849,-0.356339 0.712708,-0.695694 0.678772,-0.661758z" filter="url(#filter5073)" stroke-width="1px" fill-rule="evenodd" fill="url(#linearGradient3207)"/>
      <g id="g3159">
       <path d="m1019.024292,173.117416l2.119629,-0.519073c0,0 3.460449,-2.941437 3.849731,-3.114456c1.993896,-1.643509 4.482056,-2.250412 6.531738,-1.513992c0,0 -0.216309,-2.638641 -0.908447,-2.98468c-0.692017,-0.346054 -2.595337,-0.605591 -2.595337,-0.605591c0,0 -2.574463,1.726349 -2.877197,2.029129c-0.302856,0.302811 -4.706421,4.631424 -4.706421,4.631424l-1.377258,1.619156l-0.275452,0.56514l0.239014,-0.107056z" id="path3161" stroke-miterlimit="4" stroke-width="0.2" fill-rule="evenodd" fill="url(#linearGradient3209)"/>
       <path d="m1029.76416,163.551514c-3.373901,0.216278 -9.991882,8.056183 -10.381165,8.488739c-0.389282,0.432571 -0.977966,1.36528 -0.934814,1.322021c0,0 4.213623,1.874283 7.847229,1.65799c3.633545,-0.216278 8.17981,-2.410431 8.654541,-5.539719c0.545776,-3.59697 -1.811768,-6.145309 -5.185791,-5.929031zm-2.298218,1.492401c1.139893,-0.207962 3.579468,-0.225845 3.14209,3.413849c-0.270874,2.253403 -1.888184,5.826981 -5.218872,6c-3.33075,0.173019 -6.585938,-1.267517 -6.542786,-1.310776c0,0.000015 5.295227,-5.609955 5.511658,-5.782974c0.216187,-0.173035 1.803711,-2.002304 3.10791,-2.320099z" id="path3163" stroke-miterlimit="4" stroke-width="0.2" fill-rule="evenodd" fill="url(#linearGradient3211)"/>
      </g>
      <path id="path3165" d="m1004.723022,164.655777c-0.147705,-0.810791 1.46698,-2.005615 2.830994,-2.530273c1.364075,-0.524643 3.066101,-0.356293 3.066101,-0.356293c0,0 -1.494934,0.671082 -2.113647,1.123688c-1.246582,-0.126709 -2.389771,0.407578 -2.389771,0.407578c0,0 -0.719177,0.277359 -1.393677,1.355301z" filter="url(#filter5115)" stroke-width="1px" fill-rule="evenodd" fill="url(#linearGradient3213)" opacity="0.557971"/>
      <path d="m1026.710938,165.104446c1.06604,-0.922882 1.606934,-1.318481 3.319092,-1.425797c1.45874,-0.091385 3.507568,1.490326 3.507568,1.490326c0,0 -1.565918,1.051834 -2.27002,1.354874c-0.457886,-1.063187 -2.16394,-1.744995 -2.16394,-1.744995c0,0 -0.996582,-0.375381 -2.3927,0.325592z" id="path3167" filter="url(#filter5115)" stroke-width="1px" fill-rule="evenodd" fill="url(#linearGradient3215)" opacity="0.557971"/>
      <path id="path3169" d="m1030.777344,165.699524c0,0 0.713745,1.757034 0.329468,3.239532c-0.384399,1.482498 -1.043335,2.361023 -1.043335,2.361023c0,0 2.031616,0.384354 3.02002,-0.054916c0.988281,-0.43924 1.537354,-1.262863 1.537354,-1.262863c0,0 0.439209,-2.470825 -0.164795,-3.623886c-0.603882,-1.153061 -1.317627,-1.427597 -1.317627,-1.427597c0,0 -1.482544,0 -2.361084,0.768707z" filter="url(#filter5389)" stroke-width="1px" fill-rule="evenodd" fill="url(#linearGradient3217)"/>
     </g>
    </g>
   </g>
  </g>
 </g>
</svg>